<svg viewBox="0 0 760 466" xmlns="http://www.w3.org/2000/svg">
  <style>
    @keyframes pulse-b { 0%,100%{opacity:1} 50%{opacity:.45} }
    .p1 { animation: pulse-b 2.2s ease-in-out infinite; }
    .p2 { animation: pulse-b 2.2s ease-in-out infinite .6s; }
    .p3 { animation: pulse-b 2.2s ease-in-out infinite 1.1s; }
  </style>
  <defs>
    <linearGradient id="fld" x1="0" y1="0" x2="1" y2="1">
      <stop offset="0%"   stop-color="#2e5c28"/>
      <stop offset="55%"  stop-color="#3a6e34"/>
      <stop offset="100%" stop-color="#223f1e"/>
    </linearGradient>
    <radialGradient id="vig" cx="50%" cy="50%" r="70%">
      <stop offset="0%"   stop-color="transparent"/>
      <stop offset="100%" stop-color="rgba(0,0,0,0.42)"/>
    </radialGradient>
  </defs>
  <!-- Field -->
  <rect width="760" height="466" fill="url(#fld)"/>
  <rect x="0"   y="0"   width="380" height="233" fill="#344e2e" opacity="0.4"/>
  <rect x="400" y="240" width="360" height="226" fill="#243d20" opacity="0.35"/>
  <ellipse cx="590" cy="96" rx="130" ry="85" fill="#2a4d26" opacity="0.4"/>
  <rect width="760" height="466" fill="url(#vig)"/>

  <!-- COW 1 — NORMAL, blue box -->
  <g class="p1">
    <ellipse cx="152" cy="197" rx="44" ry="27" fill="#8b7355"/>
    <circle  cx="124" cy="192" r="17" fill="#7a6347"/>
    <rect x="106" y="207" width="9" height="20" rx="2" fill="#7a6347"/>
    <rect x="122" y="207" width="9" height="22" rx="2" fill="#7a6347"/>
    <rect x="157" y="207" width="9" height="21" rx="2" fill="#7a6347"/>
    <rect x="173" y="207" width="9" height="19" rx="2" fill="#7a6347"/>
    <rect x="100" y="162" width="108" height="76" fill="none" stroke="rgb(108,172,228)" stroke-width="2" rx="3"/>
    <rect x="100" y="149" width="105" height="15" fill="rgb(108,172,228)" rx="3"/>
    <text x="103" y="160" fill="hsl(210,50%,10%)" font-size="9.5" font-family="'Courier New',monospace" font-weight="bold">ID:01  430kg  NORMAL</text>
  </g>

  <!-- COW 2 — NORMAL -->
  <g class="p2">
    <ellipse cx="358" cy="328" rx="40" ry="25" fill="#6b5a45"/>
    <circle  cx="330" cy="323" r="15" fill="#5c4d3a"/>
    <rect x="313" y="338" width="8" height="18" rx="2" fill="#5c4d3a"/>
    <rect x="327" y="338" width="8" height="20" rx="2" fill="#5c4d3a"/>
    <rect x="354" y="338" width="8" height="19" rx="2" fill="#5c4d3a"/>
    <rect x="368" y="338" width="8" height="17" rx="2" fill="#5c4d3a"/>
    <rect x="308" y="293" width="106" height="70" fill="none" stroke="rgb(108,172,228)" stroke-width="2" rx="3"/>
    <rect x="308" y="280" width="103" height="15" fill="rgb(108,172,228)" rx="3"/>
    <text x="311" y="291" fill="hsl(210,50%,10%)" font-size="9.5" font-family="'Courier New',monospace" font-weight="bold">ID:02  396kg  NORMAL</text>
  </g>

  <!-- COW 3 — BAJO PESO, red dashed box -->
  <g>
    <ellipse cx="592" cy="150" rx="38" ry="24" fill="#9b8a6a"/>
    <circle  cx="564" cy="145" r="14" fill="#8a7a5a"/>
    <rect x="547" y="160" width="8" height="18" rx="2" fill="#8a7a5a"/>
    <rect x="561" y="160" width="8" height="19" rx="2" fill="#8a7a5a"/>
    <rect x="587" y="160" width="8" height="18" rx="2" fill="#8a7a5a"/>
    <rect x="601" y="160" width="8" height="16" rx="2" fill="#8a7a5a"/>
    <rect x="542" y="116" width="110" height="68" fill="none"
          stroke="#F25252" stroke-width="2.5" rx="3" stroke-dasharray="6,3"/>
    <rect x="542" y="102" width="122" height="16" fill="#F25252" rx="3"/>
    <text x="545" y="113" fill="white" font-size="9.5" font-family="'Courier New',monospace" font-weight="bold">ID:03  284kg  ⚠ BAJO PESO</text>
  </g>

  <!-- COW 4 — NORMAL -->
  <g class="p3">
    <ellipse cx="648" cy="378" rx="42" ry="26" fill="#7a6850"/>
    <circle  cx="620" cy="373" r="16" fill="#6b5a42"/>
    <rect x="602" y="388" width="8" height="19" rx="2" fill="#6b5a42"/>
    <rect x="616" y="388" width="8" height="21" rx="2" fill="#6b5a42"/>
    <rect x="644" y="388" width="8" height="20" rx="2" fill="#6b5a42"/>
    <rect x="658" y="388" width="8" height="18" rx="2" fill="#6b5a42"/>
    <rect x="596" y="340" width="108" height="72" fill="none" stroke="rgb(108,172,228)" stroke-width="2" rx="3"/>
    <rect x="596" y="327" width="106" height="15" fill="rgb(108,172,228)" rx="3"/>
    <text x="599" y="338" fill="hsl(210,50%,10%)" font-size="9.5" font-family="'Courier New',monospace" font-weight="bold">ID:04  449kg  NORMAL</text>
  </g>

  <!-- COW 5 — NORMAL -->
  <g class="p1">
    <ellipse cx="272" cy="127" rx="40" ry="24" fill="#8a7860"/>
    <circle  cx="246" cy="122" r="15" fill="#7a6850"/>
    <rect x="228" y="137" width="8" height="17" rx="2" fill="#7a6850"/>
    <rect x="242" y="137" width="8" height="19" rx="2" fill="#7a6850"/>
    <rect x="268" y="137" width="8" height="18" rx="2" fill="#7a6850"/>
    <rect x="282" y="137" width="8" height="16" rx="2" fill="#7a6850"/>
    <rect x="224" y="91" width="106" height="66" fill="none" stroke="rgb(108,172,228)" stroke-width="2" rx="3"/>
    <rect x="224" y="78" width="103" height="15" fill="rgb(108,172,228)" rx="3"/>
    <text x="227" y="89" fill="hsl(210,50%,10%)" font-size="9.5" font-family="'Courier New',monospace" font-weight="bold">ID:05  416kg  NORMAL</text>
  </g>

  <!-- Overlay panel -->
  <rect x="12" y="12" width="196" height="98" fill="rgba(0,0,0,0.80)" rx="10"/>
  <text x="22" y="32" fill="rgb(108,172,228)" font-size="11" font-family="'Courier New',monospace" font-weight="bold">● DETECCIÓN EN VIVO</text>
  <text x="22" y="50" fill="#FAFAFA" font-size="10" font-family="'Courier New',monospace">Cabezas: 5  |  Área: 4.2 ha</text>
  <text x="22" y="67" fill="#FAFAFA" font-size="10" font-family="'Courier New',monospace">Peso promedio: 395 kg</text>
  <text x="22" y="84" fill="#E8C163" font-size="10" font-family="'Courier New',monospace">⚠ Alertas: 1 (bajo peso)</text>
  <text x="22" y="100" fill="#6B6B6B"  font-size="9.5" font-family="'Courier New',monospace">Vuelo: 2024-10-15  Alt: 45m</text>

  <!-- Crosshair -->
  <circle cx="380" cy="233" r="50" fill="none" stroke="rgba(108,172,228,0.25)" stroke-width="1"/>
  <line x1="380" y1="177" x2="380" y2="213" stroke="rgba(108,172,228,0.25)" stroke-width="1"/>
  <line x1="380" y1="253" x2="380" y2="289" stroke="rgba(108,172,228,0.25)" stroke-width="1"/>
  <line x1="323" y1="233" x2="359" y2="233" stroke="rgba(108,172,228,0.25)" stroke-width="1"/>
  <line x1="401" y1="233" x2="437" y2="233" stroke="rgba(108,172,228,0.25)" stroke-width="1"/>
  <circle cx="380" cy="233" r="3.5" fill="rgba(108,172,228,0.4)"/>

  <!-- Frame counter -->
  <text x="680" y="457" fill="rgba(255,255,255,0.35)" font-size="9" font-family="'Courier New',monospace">Frame 847 / 3200</text>

  <!-- Progress bar -->
  <rect x="0" y="460" width="760" height="6" fill="rgba(0,0,0,0.6)"/>
  <rect x="0" y="460" width="201" height="6" fill="rgb(108,172,228)" opacity="0.85"/>
</svg>
